<svg width="181" height="34" viewBox="0 0 181 34" fill="none" xmlns="http://www.w3.org/2000/svg">
<path d="M176.142 16.4708H176.815C177.042 16.4708 177.215 16.4219 177.336 16.3211C177.457 16.2204 177.517 16.0765 177.517 15.8894C177.517 15.5067 177.284 15.3167 176.815 15.3167H176.142V16.4708ZM178.357 15.8866C178.357 16.1542 178.282 16.3902 178.136 16.5917C177.989 16.7874 177.782 16.9255 177.514 17.0147L178.498 18.7444H177.575L176.703 17.1039H176.142V18.7444H175.31V14.6606H176.904C177.373 14.6606 177.73 14.7671 177.977 14.9829C178.231 15.1901 178.357 15.4923 178.357 15.8866ZM176.732 19.9502C177.301 19.9502 177.822 19.8207 178.297 19.5588C178.777 19.2969 179.16 18.9257 179.439 18.4422C179.727 17.9529 179.87 17.386 179.87 16.7413C179.87 16.0967 179.727 15.5355 179.439 15.052C179.157 14.5627 178.777 14.1857 178.297 13.9267C177.822 13.6648 177.301 13.5353 176.732 13.5353C176.156 13.5353 175.63 13.6648 175.146 13.9267C174.672 14.1886 174.295 14.5627 174.013 15.052C173.731 15.5355 173.593 16.0967 173.593 16.7413C173.593 17.386 173.734 17.9529 174.013 18.4422C174.295 18.9257 174.672 19.2969 175.146 19.5588C175.63 19.8207 176.159 19.9502 176.732 19.9502ZM176.732 13C177.413 13 178.038 13.1554 178.607 13.4633C179.177 13.7655 179.626 14.2001 179.963 14.7699C180.296 15.334 180.463 15.9902 180.463 16.7413C180.463 17.4867 180.296 18.1429 179.963 18.7127C179.629 19.2768 179.177 19.7113 178.607 20.0193C178.041 20.3272 177.413 20.4826 176.732 20.4826C176.05 20.4826 175.425 20.3272 174.856 20.0193C174.289 19.7113 173.837 19.2739 173.501 18.7127C173.167 18.1429 173 17.4867 173 16.7413C173 15.9902 173.167 15.334 173.501 14.7699C173.834 14.2001 174.286 13.7655 174.856 13.4633C175.425 13.1554 176.05 13 176.732 13Z" fill="#242220"/>
<path d="M7.07768 17.3048C7.07768 22.7909 11.5139 27.2271 17 27.2271C22.4861 27.2271 26.9223 22.757 26.9223 17.3048V17.1355H23.2311V17.3048C23.2311 20.759 20.4203 23.5359 17 23.5359C13.5458 23.5359 10.7689 20.7251 10.7689 17.3048V17.1355H7.07768V17.3048Z" fill="#242220"/>
<path fill-rule="evenodd" clip-rule="evenodd" d="M17 34C7.61952 34 0 26.3805 0 17C0 7.61952 7.61952 0 17 0C26.3805 0 34 7.61952 34 17C34 26.3805 26.3805 34 17 34ZM17 3.92828C9.78686 3.92828 3.92829 9.78685 3.92829 17C3.92829 24.2131 9.78686 30.0717 17 30.0717C24.2132 30.0717 30.0717 24.2131 30.0717 17C30.0717 9.78685 24.247 3.92828 17 3.92828Z" fill="#242220"/>
<path d="M51 16.425V23.5H54.375V6H51V13.375H42.375V6H39V23.5H42.375V16.425H51Z" fill="#242220"/>
<path d="M60.8773 23.75C62.8773 23.75 64.0523 23 64.8023 21.675V23.5H67.7273V16.2C67.7273 13.15 65.9023 11.4 62.2773 11.4C59.3273 11.4 57.5273 12.925 56.9023 15.125L59.6773 15.875C59.9273 14.725 60.7773 13.9 62.2523 13.9C63.6773 13.9 64.6773 14.65 64.6773 16.025V16.775L63.6273 16.525C62.9523 16.35 62.2773 16.275 61.6023 16.275C58.9273 16.275 56.9773 17.45 56.9773 20.075C56.9773 22.4 58.8773 23.75 60.8773 23.75ZM62.1523 21.3C60.8523 21.3 60.2273 20.7 60.2273 19.875C60.2273 18.925 60.9773 18.45 62.1023 18.45C62.6523 18.45 63.2273 18.575 63.9523 18.8L64.6773 19.025V19.125C64.6773 20.525 63.5773 21.3 62.1523 21.3Z" fill="#242220"/>
<path d="M70.783 11.65V28.45H73.983V21.975C74.608 23.075 75.983 23.75 77.608 23.75C80.908 23.75 83.358 21.375 83.358 17.625C83.358 13.875 80.983 11.4 77.783 11.4C76.208 11.4 74.708 12.225 73.858 13.425V11.65H70.783ZM73.858 17.625C73.858 15.375 75.383 14.15 77.008 14.15C78.708 14.15 80.158 15.425 80.158 17.625C80.158 19.775 78.708 21.025 77.008 21.025C75.383 21.025 73.858 19.825 73.858 17.625Z" fill="#242220"/>
<path d="M85.7244 11.65V28.45H88.9244V21.975C89.5494 23.075 90.9244 23.75 92.5494 23.75C95.8494 23.75 98.2994 21.375 98.2994 17.625C98.2994 13.875 95.9244 11.4 92.7244 11.4C91.1494 11.4 89.6494 12.225 88.7994 13.425V11.65H85.7244ZM88.7994 17.625C88.7994 15.375 90.3244 14.15 91.9494 14.15C93.6494 14.15 95.0994 15.425 95.0994 17.625C95.0994 19.775 93.6494 21.025 91.9494 21.025C90.3244 21.025 88.7994 19.825 88.7994 17.625Z" fill="#242220"/>
<path d="M108.477 11.65L105.227 18.4L102.177 11.65H98.827L103.577 21.825L100.402 28.45H103.652L111.727 11.65H108.477Z" fill="#242220"/>
<path d="M131.591 16.425V23.5H134.966V6H131.591V13.375H122.966V6H119.591V23.5H122.966V16.425H131.591Z" fill="#242220"/>
<path d="M137.84 8.175C137.84 9.3 138.69 10.15 139.815 10.15C140.915 10.15 141.79 9.3 141.79 8.175C141.79 7.075 140.915 6.2 139.815 6.2C138.69 6.2 137.84 7.075 137.84 8.175ZM138.19 11.65V23.5H141.39V11.65H138.19Z" fill="#242220"/>
<path d="M146.715 11.65H143.34L148.015 23.5H151.89L156.565 11.65H153.19L149.965 20.5L146.715 11.65Z" fill="#242220"/>
<path d="M163.567 21C161.967 21 160.492 20.05 160.442 18.175H168.492C168.592 17.725 168.642 17.25 168.642 16.725C168.642 13.45 166.417 11.4 163.142 11.4C159.592 11.4 157.242 14.125 157.242 17.5C157.242 21.3 159.867 23.75 163.517 23.75C166.367 23.75 168.242 22.3 169.042 20.05L166.317 18.975C165.967 20.225 165.092 21 163.567 21ZM163.142 13.975C164.567 13.975 165.542 14.75 165.542 15.95C165.542 16 165.517 16.05 165.517 16.05H160.442C160.742 14.725 161.867 13.975 163.142 13.975Z" fill="#242220"/>
</svg>
