<svg width="34" height="34" viewBox="0 0 34 34" fill="none" xmlns="http://www.w3.org/2000/svg">
    <path d="M7.07768 17.3048C7.07768 22.7909 11.5139 27.2271 17 27.2271C22.4861 27.2271 26.9223 22.757 26.9223 17.3048V17.1355H23.2311V17.3048C23.2311 20.759 20.4203 23.5359 17 23.5359C13.5458 23.5359 10.7689 20.7251 10.7689 17.3048V17.1355H7.07768V17.3048Z" fill="#242220"/>
    <path fill-rule="evenodd" clip-rule="evenodd" d="M17 34C7.61952 34 0 26.3805 0 17C0 7.61952 7.61952 0 17 0C26.3805 0 34 7.61952 34 17C34 26.3805 26.3805 34 17 34ZM17 3.92828C9.78686 3.92828 3.92829 9.78685 3.92829 17C3.92829 24.2131 9.78686 30.0717 17 30.0717C24.2132 30.0717 30.0717 24.2131 30.0717 17C30.0717 9.78685 24.247 3.92828 17 3.92828Z" fill="#242220"/>
</svg>
